# xmcd
#
# Track frame offsets:
#	150
#	13182
#	26959
#	38325
#	52313
#	66766
#	81382
#	95960
#	109640
#	122497
#	136306
#	148261
#	160565
#	175101
#	189016
#	203430
#	218590
#	233472
#	246045
#	259899
#	274075
#	288976
#	302259
#
# Disc length: 4174 seconds
#
# Revision: 0
# Processed by: cddbd v1.5.1PL2 Copyright (c) Steve Scherf et al.
# Submitted via: dBpowerAMP V4.0
#
DISCID=3b104c17
DTITLE=Pedro Infante - Historia Musical
DYEAR=1900
DGENRE=
TTITLE0=El Durazno
TTITLE1=Soldado Raso
TTITLE2=Asi es la vida
TTITLE3=Dulce Patria
TTITLE4=Rosalia
TTITLE5=Mañana
TTITLE6=Ventanita de oro
TTITLE7=El azotón
TTITLE8=Mi patria es lo primero
TTITLE9=Cuando quiere un mexicano
TTITLE10=El sueño
TTITLE11=Noche plateada
TTITLE12=Mi changuita
TTITLE13=Amores de ayer
TTITLE14=Deja
TTITLE15=Me dices que te vas
TTITLE16=Ven junto a mi
TTITLE17=Mexicano hasta las cachas
TTITLE18=Siempre borracho
TTITLE19=Cielito lindo
TTITLE20=Alla en el racho grande
TTITLE21=Tu felicidad
TTITLE22=Mi tragedia
EXTD=
EXTT0=
EXTT1=
EXTT2=
EXTT3=
EXTT4=
EXTT5=
EXTT6=
EXTT7=
EXTT8=
EXTT9=
EXTT10=
EXTT11=
EXTT12=
EXTT13=
EXTT14=
EXTT15=
EXTT16=
EXTT17=
EXTT18=
EXTT19=
EXTT20=
EXTT21=
EXTT22=
PLAYORDER=
